<?xml version="1.0" encoding="UTF-8" standalone="no"?>
<!-- Created with Inkscape (http://www.inkscape.org/) -->

<svg
   width="50mm"
   height="50mm"
   viewBox="0 0 50.000001 50"
   version="1.1"
   id="svg5"
   inkscape:version="1.2.2 (b0a8486541, 2022-12-01)"
   sodipodi:docname="exlibris-handle.svg"
   inkscape:export-filename="exlibris.png"
   inkscape:export-xdpi="520.19202"
   inkscape:export-ydpi="520.19202"
   xmlns:inkscape="http://www.inkscape.org/namespaces/inkscape"
   xmlns:sodipodi="http://sodipodi.sourceforge.net/DTD/sodipodi-0.dtd"
   xmlns="http://www.w3.org/2000/svg"
   xmlns:svg="http://www.w3.org/2000/svg">
  <sodipodi:namedview
     id="namedview7"
     pagecolor="#ffffff"
     bordercolor="#ffffff"
     borderopacity="1"
     inkscape:showpageshadow="0"
     inkscape:pageopacity="1"
     inkscape:pagecheckerboard="1"
     inkscape:deskcolor="#505050"
     inkscape:document-units="mm"
     showgrid="true"
     inkscape:zoom="3.4820885"
     inkscape:cx="88.452663"
     inkscape:cy="87.303927"
     inkscape:window-width="1920"
     inkscape:window-height="1004"
     inkscape:window-x="0"
     inkscape:window-y="0"
     inkscape:window-maximized="1"
     inkscape:current-layer="layer1">
    <inkscape:grid
       type="xygrid"
       id="grid132"
       originx="0"
       originy="0"
       units="mm"
       spacingx="1"
       spacingy="1"
       empspacing="2" />
  </sodipodi:namedview>
  <defs
     id="defs2">
    <filter
       id="mask-powermask-path-effect1364_inverse"
       inkscape:label="filtermask-powermask-path-effect1364"
       style="color-interpolation-filters:sRGB"
       height="100"
       width="100"
       x="-50"
       y="-50">
      <feColorMatrix
         id="mask-powermask-path-effect1364_primitive1"
         values="1"
         type="saturate"
         result="fbSourceGraphic" />
      <feColorMatrix
         id="mask-powermask-path-effect1364_primitive2"
         values="-1 0 0 0 1 0 -1 0 0 1 0 0 -1 0 1 0 0 0 1 0 "
         in="fbSourceGraphic" />
    </filter>
  </defs>
  <g
     inkscape:label="Layer 1"
     inkscape:groupmode="layer"
     id="layer1">
    <g
       id="g618"
       transform="matrix(0.95343267,0,0,0.95343267,1.1037943,1.426564)">
      <path
         id="rect236"
         style="fill:#000000;fill-opacity:1;stroke:none;stroke-width:0.628597;stroke-opacity:1"
         d="m 23.901383,8.2263713 a 9.0968737,2.2181356 0 0 0 -3.350699,0.2666503 v 0.6418213 a 8.1836611,1.5413441 0 0 1 3.350699,-0.234611 z m 2.623096,0.013436 v 0.6717936 a 8.1836611,1.5413441 0 0 1 2.918168,0.2180746 V 8.4899211 A 9.0968737,2.2181356 0 0 0 26.524479,8.2398073 Z m 4.896859,0.6144328 v 0.6113322 a 8.1836611,1.5413441 0 0 1 1.791105,0.9596307 8.1836611,1.5413441 0 0 1 -8.18348,1.540992 8.1836611,1.5413441 0 0 1 -8.18348,-1.540992 8.1836611,1.5413441 0 0 1 1.72651,-0.9472284 V 8.856307 a 9.0968737,2.2181356 0 0 0 -2.667021,1.567863 h -0.0026 v 15.616101 h 5.16e-4 a 3.3421433,3.3092544 0 0 0 3.095935,2.586405 h 12.110889 a 3.3421433,3.3092544 0 0 0 2.987415,-2.571936 v -2.0314 h 2.730582 c 1.669253,0 3.013253,-1.344001 3.013253,-3.013253 v -4.30258 c 0,-1.669251 -1.344,-3.013252 -3.013253,-3.013252 h -2.730582 v -3.2613 a 9.0968737,2.2181356 0 0 0 5.16e-4,-0.0072 9.0968737,2.2181356 0 0 0 -2.676322,-1.5714801 z m 2.999817,6.9385939 h 1.841748 c 0.994616,0 1.795239,0.80114 1.795239,1.795756 v 2.563668 c 0,0.994617 -0.800623,1.79524 -1.795239,1.79524 h -1.841748 c -0.104269,0 -0.2061,-0.0095 -0.305408,-0.02635 v -6.101954 c 0.09931,-0.0169 0.201139,-0.02636 0.305408,-0.02636 z m -7.071403,1.648995 c 0.02961,4.73e-4 0.05963,0.0013 0.0894,0.0031 1.180659,0.0023 2.232359,1.113971 2.169893,2.329057 -7.01e-4,1.120371 -0.93407,2.119206 -2.017448,2.201416 -0.997283,0.115127 -1.953833,-0.454434 -2.559016,-1.23455 -0.596336,0.754559 -1.509198,1.320769 -2.48357,1.240751 -1.153081,-0.04192 -2.161782,-1.134672 -2.097029,-2.324923 0.0069,-1.210769 1.078469,-2.239802 2.251025,-2.212268 0.927576,-0.02147 1.754211,0.55775 2.329574,1.260388 0.566995,-0.70492 1.399331,-1.277622 2.317171,-1.262972 z m -0.03101,1.226282 c -0.07882,0.0018 -0.158011,0.01358 -0.235645,0.03617 -0.555145,0.126407 -0.963981,0.570275 -1.302762,1.010791 0.392948,0.562456 0.996687,1.121525 1.720825,1.031978 0.494311,-0.05425 0.91045,-0.517269 0.897619,-1.031978 0.01371,-0.589451 -0.528307,-1.059661 -1.080037,-1.046965 z m -4.62194,0.0067 c -0.02158,1.34e-4 -0.04324,7.34e-4 -0.06511,0.0021 -0.518686,0.02472 -0.982445,0.49878 -0.973068,1.03818 -0.02156,0.636724 0.611165,1.142582 1.209229,1.031461 0.601065,-0.08061 1.073292,-0.546829 1.412833,-1.031461 -0.38668,-0.510489 -0.914846,-1.044378 -1.583882,-1.040247 z" />
      <path
         id="path2447"
         style="fill:#010101;fill-opacity:1;stroke:none;stroke-width:0.303502;stroke-opacity:1"
         d="m 19.7691,4.2586826 c -0.02201,-2.822e-4 -0.05876,0.00653 -0.06453,0.00941 -0.02005,0.010003 -0.03176,0.029453 -0.04213,0.050636 -0.103676,0.1142829 -0.192716,0.2403079 -0.286118,0.3631946 -0.02064,0.027159 -0.04466,0.051733 -0.06273,0.080659 -0.0337,0.053921 -0.094,0.1809064 -0.125695,0.2424285 -0.140936,0.2735561 -0.28275,0.5470285 -0.420329,0.8222851 -0.07139,0.142829 -0.12574,0.2678134 -0.189552,0.4153996 -0.03068,0.07096 -0.09194,0.2372068 -0.07169,0.3233126 0.04095,0.1741691 0.157408,0.3732575 0.242204,0.529444 0.147305,0.2713236 0.306021,0.531957 0.403972,0.8258702 0.04938,0.1481491 0.09648,0.2820924 0.107771,0.4400458 0.02162,0.3024189 -0.03705,0.5013154 -0.108891,0.7947256 -0.0066,0.026913 -0.01825,0.075326 -0.02756,0.1142683 -0.0473,0.00382 -0.02694,0.035329 -0.01479,0.062061 -0.0044,0.01837 -0.0076,0.030644 -0.0121,0.049514 -0.06148,0.074462 -0.100272,0.1680036 -0.143843,0.2551995 -0.0072,0.014421 -0.01422,0.029179 -0.01815,0.04481 -0.0016,0.00664 0.0052,0.038104 0,0.044591 -0.02952,0.03694 -0.0587,0.087827 -0.07013,0.1335369 -0.01135,0.045392 -0.0082,0.1003576 -0.02689,0.1469807 -0.0016,0.0039 -0.0059,0.006 -0.009,0.0089 -0.003,0.0059 -0.0069,0.01139 -0.009,0.0177 -0.0035,0.01035 -0.02142,0.138932 -0.01457,0.145412 0.0064,0.0061 0.04217,-0.0072 0.0466,0 0.007,0.01142 0.01705,0.0086 0.03428,0.0086 0.0076,0 0.04816,0.005 0.05265,0 0.03608,-0.04041 0.04987,-0.0873 0.07954,-0.129728 0.0084,-0.01193 0.02766,-0.02541 0.03428,-0.03205 0.007,-0.007 0.01103,-0.01889 0.01546,-0.030471 0.03875,-0.031026 0.07771,-0.061933 0.114493,-0.095223 0.09592,-0.086799 0.167112,-0.1771476 0.251391,-0.2782777 0.133738,-0.1604774 0.273966,-0.3204153 0.387616,-0.4960598 0.151306,-0.2338409 0.06795,-0.1034093 0.152806,-0.2872397 0.04456,-0.096549 0.09958,-0.1863807 0.134657,-0.2872394 0.03489,-0.100316 0.02296,-0.1009941 0.04481,-0.2065795 0.03339,-0.1613253 0.03662,-0.1230298 0.05377,-0.2690911 0.0042,-0.035666 0,-0.071861 0,-0.1077711 0,-0.2932946 -0.07552,-0.424992 -0.197393,-0.68225 -0.03299,-0.069643 -0.05956,-0.1398629 -0.09881,-0.2065792 l -0.05377,-0.089622 c -0.01497,-0.02095 -0.03179,-0.040886 -0.04504,-0.062959 -0.128956,-0.214883 -0.233315,-0.4888397 -0.278276,-0.7360236 -0.0292,-0.1605163 -0.03856,-0.339485 -0.02689,-0.5027814 0.0063,-0.087823 0.03213,-0.1732577 0.04504,-0.2603528 0.02436,-0.1643231 0.04455,-0.3310329 0.08066,-0.4935953 0.0068,-0.030498 0.02011,-0.059352 0.02689,-0.089846 0.0017,-0.00779 0.0032,-0.015704 0.0047,-0.023526 0.0048,-0.00632 0.0094,-0.012855 0.01299,-0.020837 0.0065,-0.014555 -0.005,-0.038259 0,-0.053325 0.0078,-0.0236 0.04186,-0.041008 0.05377,-0.062736 0.0089,-0.016229 0.0044,-0.064802 0.009,-0.082453 0.0073,-0.028126 0.01296,-0.012634 0.02644,-0.032935 0.0072,-0.01077 -0.0032,-0.040735 0,-0.05355 0.01,-0.040305 0.01748,-0.080285 0.01748,-0.1230064 0,-0.012725 3.44e-4,-0.1294268 0,-0.1297285 -0.0024,-0.00204 -0.0081,-0.00304 -0.01546,-0.00312 z" />
      <path
         id="path2447-5"
         style="fill:#010101;fill-opacity:1;stroke:none;stroke-width:0.416629;stroke-opacity:1"
         d="m 25.558113,2.4429415 c -0.03022,-3.875e-4 -0.08066,0.00897 -0.08857,0.012916 -0.02753,0.013731 -0.0436,0.040431 -0.05783,0.06951 -0.14232,0.1568804 -0.264549,0.3298797 -0.392767,0.4985709 -0.02834,0.037282 -0.0613,0.071016 -0.08612,0.1107243 -0.04627,0.074019 -0.129037,0.248337 -0.172547,0.3327906 -0.193467,0.3755208 -0.38814,0.7509266 -0.577001,1.1287816 -0.09799,0.1960667 -0.172608,0.3676374 -0.260204,0.5702345 -0.04212,0.097409 -0.126212,0.3256227 -0.09842,0.4438233 0.05622,0.2390885 0.216081,0.5123846 0.332483,0.7267876 0.202211,0.3724562 0.420087,0.7302373 0.554548,1.133703 0.06778,0.2033698 0.132445,0.3872387 0.147941,0.6040674 0.02968,0.4151427 -0.05086,0.688175 -0.149479,1.0909503 -0.009,0.03694 -0.02506,0.1034029 -0.03783,0.1568598 -0.06493,0.00528 -0.03698,0.048495 -0.02031,0.085198 -0.006,0.025212 -0.01036,0.042062 -0.01661,0.067965 -0.0844,0.1022165 -0.137648,0.2306246 -0.19746,0.3503219 -0.0099,0.019798 -0.01952,0.040051 -0.02492,0.061515 -0.0023,0.00912 0.0071,0.052307 0,0.061214 -0.04052,0.050706 -0.08058,0.1205633 -0.09627,0.1833103 -0.01558,0.06231 -0.01124,0.137765 -0.0369,0.201766 -0.0023,0.0054 -0.0081,0.0083 -0.01236,0.01224 -0.0041,0.0081 -0.0095,0.01564 -0.01237,0.02429 -0.0047,0.01421 -0.02941,0.190717 -0.02,0.199613 0.0087,0.0084 0.05789,-0.0099 0.06397,0 0.0096,0.01568 0.0234,0.01174 0.04706,0.01174 0.01036,0 0.06611,0.0068 0.07228,0 0.04953,-0.05546 0.06846,-0.119839 0.109185,-0.178083 0.01149,-0.01638 0.03797,-0.03488 0.04706,-0.04399 0.0096,-0.0096 0.01514,-0.02593 0.02122,-0.04182 0.05319,-0.04259 0.106675,-0.08502 0.157169,-0.130717 0.131667,-0.119152 0.229401,-0.243177 0.345093,-0.382002 0.183587,-0.2202933 0.376083,-0.439846 0.532096,-0.6809593 0.207704,-0.3210021 0.09327,-0.1419539 0.209762,-0.3943046 0.06118,-0.1325369 0.136697,-0.2558517 0.184849,-0.3943046 0.0479,-0.1377072 0.03152,-0.138639 0.06151,-0.2835791 0.04584,-0.2214573 0.05027,-0.1688879 0.07381,-0.3693925 0.0057,-0.04896 0,-0.098647 0,-0.1479408 0,-0.4026165 -0.103665,-0.5834024 -0.270968,-0.9365501 -0.04527,-0.095602 -0.08175,-0.1919952 -0.135626,-0.2835792 l -0.07381,-0.123028 c -0.02054,-0.028759 -0.04364,-0.056126 -0.06182,-0.086427 -0.177024,-0.2949779 -0.320281,-0.6710487 -0.382001,-1.0103671 -0.04008,-0.2203467 -0.05293,-0.4660238 -0.0369,-0.6901869 0.0086,-0.1205574 0.0441,-0.2378373 0.06182,-0.3573961 0.03344,-0.2255724 0.06115,-0.4544212 0.110721,-0.6775766 0.0094,-0.041865 0.02761,-0.081475 0.0369,-0.1233353 0.0024,-0.010692 0.0044,-0.021557 0.0065,-0.032295 0.0066,-0.00868 0.01294,-0.017646 0.01783,-0.028604 0.0088,-0.01998 -0.0068,-0.05252 0,-0.073202 0.01075,-0.032396 0.05747,-0.056293 0.07382,-0.08612 0.01224,-0.022278 0.006,-0.088956 0.01236,-0.113186 0.01,-0.038609 0.01779,-0.017343 0.03629,-0.04521 0.0099,-0.014784 -0.0044,-0.055918 0,-0.07351 0.01371,-0.055328 0.02399,-0.1102109 0.02399,-0.1688554 0,-0.017468 4.72e-4,-0.177669 0,-0.1780834 -0.0033,-0.00279 -0.01112,-0.00417 -0.02122,-0.00429 z" />
      <path
         id="path2447-6"
         style="fill:#010101;fill-opacity:1;stroke:none;stroke-width:0.303502;stroke-opacity:1"
         d="m 30.710022,3.9968957 c -0.02201,-2.822e-4 -0.05876,0.00653 -0.06453,0.00941 -0.02005,0.010003 -0.03176,0.029453 -0.04213,0.050636 -0.103676,0.1142829 -0.192716,0.240308 -0.286119,0.3631947 -0.02064,0.027159 -0.04465,0.051733 -0.06273,0.08066 -0.0337,0.053921 -0.094,0.1809064 -0.125695,0.2424284 -0.140935,0.2735562 -0.282749,0.5470286 -0.420328,0.8222851 -0.07139,0.142829 -0.12574,0.2678134 -0.189552,0.4153996 -0.03068,0.07096 -0.09194,0.2372069 -0.0717,0.3233126 0.04095,0.1741691 0.157409,0.3732575 0.242205,0.5294441 0.147304,0.2713237 0.306021,0.531957 0.403972,0.8258703 0.04938,0.148149 0.09648,0.2820924 0.10777,0.4400457 0.02162,0.3024192 -0.03705,0.5013162 -0.108891,0.7947266 -0.0066,0.026913 -0.01825,0.075326 -0.02756,0.1142682 -0.0473,0.00382 -0.02694,0.035329 -0.01479,0.06206 -0.0044,0.01837 -0.0076,0.030644 -0.0121,0.049514 -0.06148,0.074462 -0.100272,0.1680037 -0.143844,0.2551995 -0.0072,0.014421 -0.01422,0.029179 -0.01815,0.04481 -0.0016,0.00664 0.0052,0.038104 0,0.044591 -0.02952,0.03694 -0.0587,0.087827 -0.07013,0.1335369 -0.01135,0.045392 -0.0082,0.1003577 -0.02689,0.1469808 -0.0016,0.00391 -0.0059,0.00601 -0.009,0.00892 -0.003,0.00591 -0.0069,0.011391 -0.009,0.017696 -0.0035,0.010354 -0.02142,0.1389314 -0.01457,0.1454122 0.0064,0.0061 0.04217,-0.00719 0.0466,0 0.007,0.011418 0.01705,0.00855 0.03428,0.00855 0.0076,0 0.04816,0.005 0.05265,0 0.03608,-0.040406 0.04987,-0.087299 0.07954,-0.1297283 0.0084,-0.011928 0.02766,-0.025412 0.03428,-0.032045 0.007,-0.00701 0.01103,-0.018888 0.01546,-0.030471 0.03875,-0.031026 0.07771,-0.061933 0.114493,-0.095223 0.09592,-0.086799 0.167112,-0.1771476 0.251391,-0.2782777 0.133738,-0.1604774 0.273966,-0.3204153 0.387617,-0.4960598 0.151306,-0.2338409 0.06795,-0.1034092 0.152805,-0.2872398 0.04456,-0.09655 0.09958,-0.1863812 0.134658,-0.2872401 0.03489,-0.1003161 0.02296,-0.1009942 0.04481,-0.2065795 0.03339,-0.1613253 0.03662,-0.1230299 0.05377,-0.2690912 0.0042,-0.035666 0,-0.071861 0,-0.107771 0,-0.2932946 -0.07552,-0.424992 -0.197394,-0.68225 C 30.91823,6.954228 30.89166,6.8840081 30.85241,6.8172917 L 30.79864,6.7276697 C 30.78367,6.7067197 30.76685,6.6867837 30.7536,6.6647107 30.62465,6.4498258 30.520292,6.1758691 30.47533,5.9286853 30.44613,5.768169 30.43677,5.5892003 30.44844,5.4259039 c 0.0063,-0.087823 0.03213,-0.1732578 0.04504,-0.2603529 0.02436,-0.164323 0.04455,-0.3310329 0.08066,-0.4935952 0.0068,-0.030498 0.02011,-0.059352 0.02689,-0.089846 0.0017,-0.00779 0.0032,-0.015704 0.0047,-0.023526 0.0048,-0.00632 0.0094,-0.012855 0.01299,-0.020837 0.0065,-0.014555 -0.005,-0.038259 0,-0.053325 0.0078,-0.023599 0.04186,-0.041008 0.05377,-0.062736 0.0089,-0.016229 0.0044,-0.064802 0.009,-0.082453 0.0073,-0.028126 0.01296,-0.012634 0.02644,-0.032935 0.0072,-0.01077 -0.0032,-0.040735 0,-0.05355 0.01,-0.040305 0.01748,-0.080286 0.01748,-0.1230064 0,-0.012725 3.44e-4,-0.1294268 0,-0.1297286 -0.0024,-0.00204 -0.0081,-0.00304 -0.01546,-0.00312 z" />
    </g>
    <text
       xml:space="preserve"
       style="font-style:normal;font-variant:normal;font-weight:bold;font-stretch:normal;font-size:5.64444px;font-family:Bajern;-inkscape-font-specification:'Bajern Bold';text-align:center;letter-spacing:0px;text-anchor:middle;fill:#ffffff;fill-opacity:1;stroke:none;stroke-width:0.7;stroke-opacity:1"
       x="24.994356"
       y="34.803322"
       id="text2838"><tspan
         sodipodi:role="line"
         id="tspan2836"
         style="font-style:normal;font-variant:normal;font-weight:normal;font-stretch:normal;font-size:5.64444px;font-family:'EB Garamond';-inkscape-font-specification:'EB Garamond';fill:#000000;stroke-width:0.7"
         x="24.994356"
         y="34.803322">ex librīs</tspan></text>
    <text
       xml:space="preserve"
       style="font-style:normal;font-variant:normal;font-weight:bold;font-stretch:normal;font-size:7.05556px;font-family:Bajern;-inkscape-font-specification:'Bajern Bold';text-align:center;letter-spacing:0.198437px;text-anchor:middle;fill:#ffffff;fill-opacity:1;stroke:none;stroke-width:0.7;stroke-opacity:1"
       x="24.911806"
       y="41.718971"
       id="text2842"><tspan
         sodipodi:role="line"
         id="tspan2840"
         style="font-style:normal;font-variant:normal;font-weight:normal;font-stretch:normal;font-family:'EB Garamond';-inkscape-font-specification:'EB Garamond';fill:#000000;stroke-width:0.7"
         x="25.011024"
         y="41.718971">Sohal Sudheer</tspan></text>
    <text
       xml:space="preserve"
       style="font-style:normal;font-variant:normal;font-weight:bold;font-stretch:normal;font-size:4.23333px;font-family:Bajern;-inkscape-font-specification:'Bajern Bold';text-align:center;text-anchor:middle;fill:#ffffff;fill-opacity:1;stroke:none;stroke-width:0.7;stroke-opacity:1"
       x="24.997885"
       y="46.786327"
       id="text2862"><tspan
         sodipodi:role="line"
         id="tspan2860"
         style="font-style:italic;font-variant:normal;font-weight:normal;font-stretch:normal;font-size:4.23333px;font-family:'EB Garamond';-inkscape-font-specification:'EB Garamond Italic';fill:#000000;stroke-width:0.7"
         x="24.997885"
         y="46.786327">ad īnfīnīta mystēria</tspan></text>
  </g>
</svg>
